<svg xmlns="http://www.w3.org/2000/svg" xmlns:xlink="http://www.w3.org/1999/xlink" width="1600" zoomAndPan="magnify" viewBox="0 0 1200 675.000002" height="900" preserveAspectRatio="xMidYMid meet" version="1.0"><path fill="#000000" d="M 801.011719 25.933594 C 801.238281 26.046875 801.410156 26.105469 801.582031 26.21875 C 801.410156 26.105469 801.238281 25.992188 801.011719 25.933594 Z M 861.855469 650.867188 C 837.460938 628.988281 837.632812 595.570312 834.777344 564.152344 C 834.777344 564.152344 834.71875 564.09375 834.71875 564.09375 C 776.898438 520.109375 713.769531 483.207031 657.664062 436.824219 C 658.292969 452.246094 660.636719 467.957031 652.464844 481.4375 C 641.839844 497.605469 616.359375 490.578125 612.703125 472.46875 C 600.875 445.050781 623.898438 408.492188 601.5625 385.355469 C 579.734375 402.605469 555.796875 384.328125 547.457031 362.335938 C 544.828125 357.367188 542.941406 352.054688 541.230469 346.625 C 540.542969 346.398438 539.859375 345.996094 539.171875 345.539062 C 498.378906 317.949219 455.53125 293.671875 414.964844 265.683594 C 396.796875 253.800781 376.574219 244.316406 360.691406 229.292969 C 360.519531 229.007812 360.347656 228.722656 360.234375 228.496094 C 302.300781 220.441406 297.386719 145.894531 339.152344 113.277344 C 339.664062 111.847656 340.578125 110.589844 341.894531 109.734375 C 351.492188 103.449219 361.035156 97.167969 370.746094 91.167969 C 390.398438 78.601562 411.367188 68.148438 432.164062 57.636719 C 481.183594 34.386719 533 15.824219 586.476562 6.453125 C 621.730469 2.054688 657.550781 0 693.03125 2.457031 C 725.253906 5.710938 773.015625 9.082031 800.894531 25.933594 C 800.894531 25.933594 800.839844 25.933594 800.839844 25.878906 C 800.839844 25.878906 800.894531 25.878906 800.894531 25.933594 C 801.46875 26.277344 802.09375 26.621094 802.667969 27.019531 C 802.210938 26.675781 801.867188 26.449219 801.46875 26.21875 C 802.78125 26.90625 803.695312 27.820312 804.265625 28.847656 C 810.324219 33.417969 815.980469 40.386719 817.976562 45.300781 C 827.75 66.664062 817.75 90.65625 803.636719 107.5625 C 801.125 110.191406 798.039062 114.417969 794.667969 117.902344 C 795.183594 118.472656 795.640625 119.21875 796.039062 120.074219 C 811.179688 167.144531 822.433594 215.414062 831.863281 263.96875 C 843.230469 313.207031 852.488281 361.933594 859.570312 411.859375 C 866.140625 447.105469 870.769531 482.695312 876.710938 518.109375 C 877.511719 522.167969 878.140625 526.28125 879.167969 530.277344 C 879.339844 530.851562 879.453125 531.363281 879.453125 531.933594 C 881.566406 535.535156 881.339844 540.503906 882.652344 544.445312 C 885.28125 555.414062 889.621094 565.808594 892.652344 576.664062 C 900.476562 600.996094 902.707031 665.03125 861.855469 650.867188 Z M 765.1875 227.007812 C 752.675781 229.238281 739.878906 229.578125 727.195312 229.351562 C 724.222656 229.292969 721.082031 229.066406 718.28125 228.09375 C 718.398438 229.695312 718.738281 231.292969 719.367188 233.007812 C 740.394531 240.71875 789.414062 235.804688 808.894531 223.46875 C 808.496094 221.695312 808.09375 219.984375 807.636719 218.210938 C 807.179688 218.328125 806.667969 218.496094 806.265625 218.613281 C 801.066406 218.953125 791.070312 225.011719 789.070312 217.46875 C 788.441406 213.015625 793.238281 212.15625 796.609375 211.644531 C 799.640625 211.015625 802.667969 210.328125 805.636719 209.585938 C 804.667969 205.472656 803.636719 201.359375 802.609375 197.304688 C 802.4375 197.246094 802.324219 197.191406 802.152344 197.132812 C 788.097656 192.964844 772.730469 193.761719 758.390625 196.046875 C 746.390625 199.589844 733.59375 202.617188 725.136719 212.328125 C 723.308594 214.554688 721.597656 216.785156 720.394531 219.183594 C 730.453125 221.925781 741.535156 220.15625 751.933594 219.8125 C 757.191406 220.324219 767.074219 214.613281 769.015625 221.980469 C 769.300781 224.382812 767.585938 226.609375 765.1875 227.007812 Z M 359.832031 119.445312 C 360.976562 118.246094 361.660156 116.644531 361.777344 114.988281 C 361.660156 116.644531 360.917969 118.246094 359.832031 119.445312 Z M 366.289062 213.640625 C 371.945312 211.472656 377.203125 208.617188 382.285156 205.417969 C 383.601562 203.761719 385.257812 202.21875 386.855469 200.847656 C 393.027344 192.449219 397.253906 182.394531 399.769531 172.285156 C 401.140625 164.574219 401.199219 156.574219 398.570312 149.09375 C 396.625 137.953125 413.082031 133.496094 414.679688 153.832031 C 415.996094 163.03125 415.082031 172.742188 412.339844 181.597656 C 411.882812 182.851562 411.308594 184.339844 410.625 186.050781 C 412.851562 184.625 415.136719 183.253906 417.480469 181.996094 C 447.644531 163.03125 480.78125 149.265625 514.546875 138.296875 C 564.710938 122.300781 615.84375 109.21875 668.578125 105.5625 C 701.769531 102.480469 735.59375 98.710938 768.730469 103.738281 C 773.816406 104.59375 778.957031 105.679688 783.8125 107.390625 C 786.269531 105.335938 788.785156 103.335938 790.15625 101.164062 C 803.351562 86.257812 816.664062 59.808594 798.894531 43.472656 C 796.269531 41.242188 793.527344 39.1875 790.667969 37.1875 C 789.984375 36.730469 789.414062 36.160156 789.011719 35.53125 C 775.359375 28.734375 759.761719 26.390625 744.847656 23.421875 C 688.171875 13.023438 629.15625 13.480469 572.421875 23.761719 C 526.433594 34.445312 481.527344 49.867188 439.019531 70.492188 C 416.625 81.574219 394.457031 93.113281 373.429688 106.648438 C 378.628906 107.621094 382.800781 110.132812 381.886719 116.246094 C 380.972656 120.015625 376.859375 122.703125 373.089844 121.617188 C 366.976562 119.960938 360.691406 120.132812 354.691406 121.84375 C 353.835938 121.730469 353.035156 121.5 352.347656 121.273438 C 349.148438 125.273438 344.351562 128.128906 340.980469 132.011719 C 324.238281 149.207031 320.640625 179.082031 334.921875 198.847656 C 342.40625 207.585938 354.0625 216.210938 366.289062 213.640625 Z M 533.117188 324.121094 C 532.257812 322.40625 531.289062 320.75 530.257812 319.148438 C 506.835938 297.441406 480.496094 279.335938 454.160156 261.453125 C 436.675781 249.746094 419.707031 237.175781 401.199219 227.179688 C 396.511719 224.609375 391.882812 221.925781 387.085938 219.640625 C 384.058594 221.582031 380.972656 223.351562 377.714844 224.839844 C 392.96875 235.976562 409.652344 245.003906 425.535156 255.226562 C 446.046875 268.9375 466.386719 282.875 487.808594 295.15625 C 503.351562 305.15625 518.203125 314.351562 533.117188 324.121094 Z M 832.203125 544.046875 C 831.632812 541.019531 831.003906 537.988281 830.261719 535.078125 C 824.71875 522.679688 812.152344 515.484375 801.867188 507.316406 C 788.097656 496.574219 774.328125 485.835938 760.847656 474.8125 C 729.765625 450.304688 698 424.429688 662.40625 407.003906 C 660.523438 410.660156 659.320312 414.433594 658.578125 418.316406 C 658.75 418.488281 658.863281 418.660156 659.035156 418.832031 C 697.199219 451.21875 738.90625 479.4375 780.15625 507.714844 C 798.324219 518.910156 815.234375 531.363281 832.203125 544.046875 Z M 690.914062 405.691406 C 692.402344 406.71875 693.945312 407.804688 695.488281 408.890625 C 713.539062 420.488281 730.851562 433.109375 747.878906 446.136719 C 748.105469 443.679688 748.90625 440.9375 749.078125 438.878906 C 749.25 437.738281 749.535156 436.367188 749.933594 435.054688 C 745.878906 431.226562 741.25 427.96875 736.734375 424.65625 C 732.050781 421.230469 737.421875 413.976562 742.050781 417.460938 C 746.792969 421.402344 753.019531 424.601562 756.847656 429.570312 C 757.074219 429.625 757.359375 429.742188 757.589844 429.855469 C 758.445312 430.3125 759.019531 430.882812 759.304688 431.453125 C 764.273438 429.625 770.671875 428.941406 774.214844 426.371094 C 779.585938 424.828125 782.554688 415.746094 787.871094 417.460938 C 783.640625 409.40625 772.902344 402.207031 763.304688 397.179688 C 752.5625 392.152344 740.449219 390.953125 728.738281 390.210938 C 719.710938 390.496094 710.113281 392.382812 701.769531 396.4375 C 706.285156 399.238281 711.027344 401.636719 715.652344 404.207031 C 720.738281 407.003906 716.28125 414.890625 711.253906 412.03125 C 705.769531 408.375 698.457031 406.089844 693.488281 401.691406 C 692.457031 402.894531 691.945312 404.550781 690.914062 405.691406 Z M 756.332031 449.277344 C 763.015625 448.019531 771.359375 446.136719 778.15625 440.480469 C 786.097656 435.339844 789.46875 430.140625 789.8125 425.171875 C 785.414062 432.597656 767.128906 439.335938 761.816406 440.421875 C 760.503906 441.394531 759.019531 442.136719 757.589844 442.363281 C 757.191406 444.59375 757.074219 447.277344 756.332031 449.277344 Z M 882.195312 598.253906 C 879.96875 576.949219 869.625 557.582031 866.199219 536.503906 C 866.199219 536.390625 866.199219 536.277344 866.140625 536.164062 C 865.796875 535.589844 865.511719 534.960938 865.285156 534.164062 C 848.03125 433.625 833.632812 332.289062 811.007812 232.777344 C 809.066406 233.921875 807.066406 234.890625 805.007812 235.75 C 782.957031 243.460938 759.074219 246.429688 735.765625 245.515625 C 728.335938 244.375 720.394531 243.402344 713.597656 240.089844 C 709.425781 236.492188 709.828125 229.921875 709.085938 224.894531 C 709.769531 216.269531 716.054688 208.671875 721.882812 202.675781 C 730.621094 194.847656 742.164062 191.476562 753.191406 188.050781 C 768.332031 184.851562 784.898438 183.652344 800.097656 187.308594 C 797.125 175.828125 794.097656 164.34375 790.839844 152.976562 C 788.5 143.78125 786.269531 134.527344 782.785156 125.730469 C 782.386719 124.816406 782.15625 123.902344 782.15625 123.042969 C 781.242188 122.757812 780.328125 122.300781 779.414062 121.617188 C 779.300781 121.445312 779.1875 121.332031 779.015625 121.160156 C 763.761719 116.019531 746.960938 115.847656 731.136719 116.019531 C 688.746094 116.988281 646.410156 121.671875 604.589844 128.8125 C 563.683594 137.726562 523.175781 149.777344 484.039062 164.628906 C 457.359375 175.484375 431.820312 188.964844 407.996094 205.1875 C 405.539062 206.671875 403.140625 208.328125 400.742188 210.042969 C 405.882812 212.785156 410.679688 215.871094 413.421875 217.296875 C 457.585938 245.289062 502.148438 274.078125 541 309.265625 C 554.027344 326.117188 553.914062 350.109375 566.996094 367.246094 C 581.449219 387.011719 586.304688 373.015625 602.417969 370.730469 C 627.785156 377.015625 627.613281 411.289062 624.871094 432.253906 C 623.785156 444.535156 622.414062 457.390625 626.925781 469.15625 C 628.753906 477.839844 640.8125 478.296875 642.296875 469.15625 C 645.722656 454.988281 642.183594 440.308594 643.152344 425.914062 C 645.894531 388.15625 660.75 387.125 683.546875 400.835938 C 683.660156 400.207031 683.945312 399.636719 684.347656 399.066406 C 702.972656 377.1875 737.765625 378.671875 762.902344 387.125 C 828.832031 417.917969 789.46875 449.847656 762.730469 457.558594 C 775.527344 467.613281 788.210938 477.894531 800.953125 488.121094 C 848.828125 521.996094 846.832031 527.9375 851 584.832031 C 852.488281 627.960938 884.308594 674 882.195312 598.253906 Z M 616.871094 205.644531 C 618.070312 215.699219 618.816406 222.210938 610.585938 229.578125 C 594.761719 243.117188 572.707031 249 552.140625 249.058594 C 533.800781 248.714844 514.949219 245.460938 498.324219 237.578125 C 493.980469 234.777344 492.039062 227.238281 493.980469 222.609375 C 494.4375 221.980469 495.007812 221.523438 495.636719 221.238281 C 504.148438 175.140625 584.308594 170.34375 614.128906 197.761719 C 615.328125 198.847656 615.671875 200.21875 615.445312 201.417969 C 615.902344 201.816406 616.242188 202.273438 616.472656 202.847656 C 616.53125 203.015625 616.53125 203.246094 616.585938 203.417969 C 616.871094 204.101562 616.988281 204.84375 616.871094 205.644531 Z M 608.757812 216.667969 C 608.757812 215.871094 608.703125 215.070312 608.644531 214.269531 C 605.847656 216.15625 602.933594 217.753906 601.046875 219.125 C 590.25 224.210938 577.109375 230.265625 565.109375 227.808594 C 561.910156 225.695312 563.226562 220.097656 567.109375 219.753906 C 570.539062 219.46875 574.023438 219.125 577.394531 218.441406 C 588.421875 216.042969 598.933594 211.015625 607.332031 203.589844 C 605.902344 202.160156 604.359375 200.902344 602.703125 199.820312 C 575.109375 185.367188 532.542969 184.566406 510.492188 209.128906 C 508.835938 211.128906 507.234375 215.757812 505.351562 219.582031 C 518.203125 222.4375 531.746094 224.152344 545.113281 222.894531 C 547.570312 222.78125 549.628906 224.953125 549.628906 227.292969 C 548.828125 234.835938 537.402344 231.292969 532.144531 232.148438 C 528.375 231.980469 511.632812 231.238281 502.605469 228.039062 C 502.722656 228.664062 502.894531 229.292969 503.066406 229.867188 C 528.316406 240.605469 558.367188 244.089844 584.421875 234.265625 C 593.503906 230.550781 604.703125 226.4375 608.757812 216.667969 Z M 700.972656 316.691406 C 703.542969 322.917969 698.171875 333.945312 690.515625 331.886719 C 674.347656 326.632812 658.863281 319.492188 643.097656 312.980469 C 636.699219 309.324219 624.242188 308.410156 623.101562 299.785156 C 622.699219 293.730469 627.671875 288.015625 633.15625 286.132812 C 644.925781 282.648438 696.800781 305.324219 700.972656 316.691406 Z M 692.34375 319.265625 C 687.03125 313.324219 634.355469 285.332031 632.125 298.472656 C 636.296875 300.585938 640.753906 302.242188 645.039062 304.070312 C 660.519531 310.523438 675.832031 317.320312 691.660156 322.863281 C 692.289062 321.71875 693.203125 320.40625 692.34375 319.265625 Z M 809.121094 384.898438 C 807.238281 384.15625 806.152344 382.15625 806.378906 380.15625 C 801.351562 379.585938 801.46875 372.273438 800.382812 368.789062 C 798.324219 357.765625 796.554688 346.625 795.527344 335.429688 C 792.382812 322.863281 808.4375 311.039062 815.691406 324.691406 C 821.519531 337.601562 821.234375 352.167969 823.007812 365.992188 C 825.003906 374.730469 820.550781 389.582031 809.121094 384.898438 Z M 812.894531 376.730469 C 816.722656 373.875 810.894531 330.574219 806.722656 327.546875 C 801.125 330.347656 806.378906 344.742188 806.378906 350.226562 C 807.523438 359.535156 809.292969 367.648438 811.292969 376.273438 C 811.695312 376.332031 812.09375 376.386719 812.492188 376.558594 C 812.609375 376.617188 812.78125 376.671875 812.894531 376.730469 Z M 774.328125 320.121094 C 776.613281 325.433594 780.726562 345.082031 771.472656 344.914062 C 770.785156 344.855469 770.160156 344.570312 769.585938 344.226562 C 752.503906 340.398438 738.164062 324.691406 733.878906 307.894531 C 733.25 302.296875 729.878906 293.558594 736.109375 290.074219 C 740.277344 288.472656 744.621094 291.042969 748.503906 292.472656 C 761.246094 296.8125 768.902344 308.410156 774.328125 320.121094 Z M 759.019531 311.378906 C 755.132812 305.097656 748.335938 301.839844 741.59375 299.386719 C 742.5625 315.265625 753.988281 328.460938 768.101562 334.746094 C 768.617188 325.949219 763.589844 318.464844 759.019531 311.378906 Z M 673.203125 162.632812 C 664.921875 145.894531 691.371094 144.636719 701.886719 142.238281 C 712.96875 141.324219 739.9375 132.125 739.136719 150.921875 C 737.421875 163.601562 730.335938 162.859375 719.769531 164.574219 C 706.628906 166.34375 693.542969 168.972656 680.347656 170.113281 C 676.574219 169.601562 674.460938 165.945312 673.203125 162.632812 Z M 680.632812 157.089844 C 681.089844 158.402344 681.601562 159.660156 682.175781 160.972656 C 682.230469 161.03125 682.230469 161.089844 682.289062 161.144531 C 697.828125 158.632812 713.539062 156.976562 728.964844 153.832031 C 729.652344 152.347656 730.222656 150.75 730.335938 149.148438 C 722.679688 146.351562 688.289062 152.863281 680.632812 157.089844 Z M 648.351562 225.695312 C 657.320312 222.78125 667.089844 223.351562 675.945312 226.324219 C 680.6875 228.78125 695.03125 230.894531 690 238.664062 C 685.316406 255 646.179688 259.398438 631.441406 258.3125 C 616.816406 257.800781 625.785156 241.804688 631.613281 235.804688 C 635.953125 230.722656 641.953125 227.410156 648.351562 225.695312 Z M 633.210938 249.457031 C 636.296875 249.574219 639.441406 249.515625 642.523438 249.402344 C 655.609375 248.203125 670.121094 246.144531 680.746094 237.863281 C 664.804688 229.238281 641.097656 231.066406 633.210938 249.457031 Z M 595.449219 317.605469 C 596.074219 320.292969 593.734375 323.320312 590.933594 323.035156 C 572.367188 318.234375 557.910156 302.8125 552.882812 284.476562 C 551.742188 279.503906 547.511719 271.566406 553.226562 268.136719 C 561.855469 265.910156 576.480469 272.652344 582.480469 278.933594 C 588.304688 285.390625 593.5625 292.929688 595.105469 301.613281 C 595.503906 306.640625 598.589844 313.152344 595.449219 317.605469 Z M 587.675781 312.410156 C 587.21875 296.128906 576.765625 280.078125 560.082031 277.050781 C 563.511719 292.414062 572.765625 306.46875 587.675781 312.410156 Z M 588.820312 162.230469 C 585.390625 151.433594 602.53125 141.265625 611.730469 140.410156 C 618.472656 139.039062 648.867188 140.925781 641.894531 152.578125 C 636.46875 163.660156 621.730469 167.65625 610.128906 166.914062 C 603.847656 165.945312 592.707031 167.945312 588.820312 162.230469 Z M 598.761719 157.148438 C 603.273438 157.660156 607.789062 157.890625 612.300781 158.0625 C 619.613281 158.347656 626.8125 156.117188 632.242188 151.148438 C 621.273438 147.492188 606.644531 147.4375 598.761719 157.148438 Z M 475.242188 224.265625 C 476.613281 227.238281 474.042969 230.722656 470.839844 230.4375 C 452.960938 231.808594 436.675781 210.328125 446.902344 194.335938 C 458.671875 185.59375 480.382812 212.558594 475.242188 224.265625 Z M 466.84375 221.238281 C 467.300781 213.128906 459.929688 205.53125 453.128906 201.988281 C 451.132812 210.730469 458.160156 219.925781 466.84375 221.238281 Z M 834.488281 484.75 C 833.632812 484.464844 832.832031 483.835938 832.261719 483.09375 C 819.863281 476.523438 808.953125 462.128906 813.808594 447.621094 C 815.121094 442.25 819.292969 434.195312 825.976562 437.339844 C 835.117188 443.449219 842.03125 453.332031 842.144531 464.644531 C 842.089844 470.585938 843.632812 486.121094 834.488281 484.75 Z M 823.632812 446.820312 C 818.265625 456.761719 824.664062 467.386719 833.117188 473.097656 C 834.546875 463.273438 832.03125 452.875 823.632812 446.820312 Z M 586.761719 355.308594 C 578.195312 358.050781 575.792969 347.941406 570.023438 351.996094 C 564.425781 358.507812 576.023438 363.992188 581.449219 364.449219 C 592.933594 366.332031 594.589844 356.164062 586.761719 355.308594 Z M 872.140625 601.738281 C 867.742188 602.367188 868.199219 606.824219 868.65625 610.136719 C 867.742188 613.109375 867.742188 616.933594 871.398438 617.90625 C 879.394531 619.847656 880.136719 600.769531 872.140625 601.738281 Z M 717.941406 41.984375 C 738.335938 43.984375 765.1875 45.757812 780.726562 60.324219 C 784.328125 64.890625 791.355469 59.238281 787.699219 54.722656 C 783.757812 49.867188 778.328125 46.613281 772.617188 44.097656 C 748.90625 34.445312 723.023438 32.730469 697.65625 32.046875 C 695.199219 31.988281 693.203125 34.160156 693.203125 36.558594 C 693.144531 44.15625 712.226562 40.445312 717.941406 41.984375 Z M 669.261719 42.671875 C 671.71875 42.671875 673.71875 40.613281 673.71875 38.160156 C 673.71875 35.703125 671.664062 33.703125 669.207031 33.703125 C 666.75 33.703125 664.75 35.757812 664.75 38.214844 C 664.75 40.671875 666.804688 42.671875 669.261719 42.671875 Z M 422.679688 100.082031 C 438.789062 90.027344 456.332031 81.800781 474.5 76.261719 C 476.785156 75.347656 477.8125 72.605469 476.839844 70.375 C 474.328125 65.234375 468.386719 69.121094 464.328125 70.089844 C 455.246094 73.289062 399.199219 96.140625 406.394531 106.992188 C 412.109375 112.304688 417.652344 102.308594 422.679688 100.082031 Z M 669.492188 354.222656 C 667.035156 354.222656 664.976562 356.050781 664.863281 358.566406 C 664.804688 360.964844 666.75 363.191406 669.207031 363.191406 C 671.664062 363.191406 673.71875 361.363281 673.832031 358.851562 C 673.890625 356.453125 671.949219 354.222656 669.492188 354.222656 Z M 799.410156 296.585938 C 801.867188 296.585938 803.925781 294.757812 804.039062 292.246094 C 804.09375 289.84375 802.152344 287.617188 799.695312 287.617188 C 797.238281 287.617188 795.183594 289.445312 795.070312 291.957031 C 795.011719 294.359375 796.953125 296.585938 799.410156 296.585938 Z M 707.542969 263.113281 C 705.085938 263.113281 703.027344 264.9375 702.914062 267.453125 C 702.855469 269.851562 704.800781 272.078125 707.253906 272.078125 C 709.710938 272.078125 711.769531 270.25 711.882812 267.738281 C 711.996094 265.339844 710 263.113281 707.542969 263.113281 Z M 760.160156 177.253906 C 762.617188 177.253906 764.675781 175.425781 764.789062 172.914062 C 764.84375 170.515625 762.902344 168.285156 760.445312 168.285156 C 757.988281 168.285156 755.933594 170.113281 755.820312 172.628906 C 755.761719 175.027344 757.703125 177.253906 760.160156 177.253906 Z M 668.003906 196.90625 C 670.460938 196.90625 672.519531 195.078125 672.632812 192.5625 C 672.691406 190.164062 670.75 187.9375 668.292969 187.9375 C 665.835938 187.9375 663.777344 189.765625 663.664062 192.277344 C 663.605469 194.675781 665.550781 196.90625 668.003906 196.90625 Z M 532.375 169.542969 C 534.832031 169.542969 536.886719 167.714844 537 165.203125 C 537.058594 162.800781 535.117188 160.574219 532.660156 160.574219 C 530.203125 160.574219 528.144531 162.402344 528.03125 164.914062 C 527.917969 167.316406 529.917969 169.542969 532.375 169.542969 Z M 486.667969 184.625 C 484.210938 184.625 482.152344 186.453125 482.039062 188.964844 C 481.984375 191.363281 483.925781 193.59375 486.382812 193.59375 C 488.839844 193.59375 490.894531 191.765625 491.007812 189.25 C 491.066406 186.851562 489.125 184.625 486.667969 184.625 Z M 486.667969 184.625 " fill-opacity="1" fill-rule="nonzero"/></svg>