<svg xmlns="http://www.w3.org/2000/svg" xmlns:xlink="http://www.w3.org/1999/xlink" width="1600" zoomAndPan="magnify" viewBox="0 0 1200 675.000002" height="900" preserveAspectRatio="xMidYMid meet" version="1.0"><path fill="#000000" d="M 654.1875 23.066406 C 730.441406 41.136719 793.125 81.496094 844.929688 139.632812 C 867.058594 164.492188 886.429688 191.386719 902.25 220.710938 C 906.421875 228.441406 910.808594 236.167969 914.328125 244.191406 C 924.847656 268.070312 925.210938 292.640625 916.722656 317.210938 C 912.949219 328.097656 905.441406 335.972656 894.628906 340.652344 C 865.644531 353.136719 837.347656 367.253906 808.109375 379.230469 C 806.078125 380.066406 804.117188 381.226562 802.015625 381.808594 C 796.28125 383.332031 794.105469 386.417969 794.832031 392.660156 C 795.882812 401.949219 792.039062 410.007812 785.800781 416.757812 C 774.914062 428.480469 760.296875 427.972656 751.117188 415.015625 C 747.78125 410.296875 745.203125 409.609375 740.417969 412.039062 C 735.375 414.578125 729.96875 416.503906 724.746094 418.71875 C 717.527344 421.765625 710.886719 424.597656 707.148438 433.015625 C 703.632812 441 695.757812 444.847656 686.582031 442.777344 C 682.808594 441.945312 679.980469 442.742188 676.859375 444.664062 C 611.667969 485.277344 542.816406 519.355469 475.667969 556.515625 C 471.496094 558.804688 469.679688 560.691406 470.480469 565.84375 C 472.074219 575.898438 467.757812 584.390625 461.191406 591.683594 C 453.320312 600.429688 444.433594 601.011719 435.328125 593.605469 C 431.3125 590.363281 427.117188 590 422.738281 592.519531 C 392.628906 609.867188 362.554688 627.285156 331.464844 642.820312 C 327.257812 644.921875 322.902344 646.917969 318.40625 648.371094 C 312.382812 650.367188 306.941406 648.988281 303.714844 643.144531 C 301.863281 639.804688 299.433594 638.355469 295.839844 637.230469 C 288.1875 634.871094 285.210938 630.226562 285.539062 622.277344 C 285.757812 616.871094 287.242188 611.679688 289.457031 606.746094 C 291.921875 601.265625 294.28125 595.75 297.109375 590.449219 C 304.257812 577.023438 307.777344 562.902344 306.90625 547.625 C 306.578125 541.671875 307.269531 535.648438 307.667969 529.660156 C 308.574219 516.050781 314.160156 504.472656 324.5 495.800781 C 344.054688 479.503906 352.070312 458.019531 354.175781 433.523438 C 355.226562 421.257812 358.601562 409.863281 367.996094 401.222656 C 377.464844 392.515625 382.363281 381.371094 385.410156 369.25 C 388.566406 356.695312 391.648438 344.101562 394.40625 331.433594 C 399.121094 309.550781 407.972656 290.0625 425.351562 275.253906 C 434.308594 267.632812 436.777344 257.472656 436.851562 246.332031 C 436.886719 240.34375 436.957031 234.355469 437.140625 228.332031 C 437.71875 206.738281 445.011719 187.539062 458.21875 170.625 C 466.597656 159.921875 476.464844 150.558594 485.714844 140.613281 C 488.796875 137.347656 494.058594 136.910156 495.945312 132.628906 C 498.628906 126.53125 500.515625 121.414062 496.164062 113.832031 C 485.386719 94.996094 487.78125 74.78125 495.65625 55.292969 C 503.238281 36.492188 516.878906 24.550781 536.828125 19.542969 C 557.324219 14.355469 578.039062 13.882812 598.898438 15.082031 C 617.546875 16.132812 635.972656 18.671875 654.1875 23.066406 Z M 618.671875 162.386719 C 618.054688 161.917969 617.835938 161.589844 617.546875 161.554688 C 614.097656 161.261719 610.652344 160.71875 607.207031 160.828125 C 587.796875 161.480469 569.734375 156.65625 552.5 147.945312 C 538.644531 140.941406 523.804688 138.90625 508.351562 139.5625 C 500.550781 139.886719 494.238281 142.464844 489.050781 148.015625 C 481.722656 155.855469 474.25 163.585938 467.359375 171.824219 C 453.828125 188.046875 445.738281 206.554688 445.121094 227.96875 C 444.941406 233.957031 444.722656 239.945312 444.6875 245.933594 C 444.578125 259.070312 441.492188 271.117188 431.082031 279.972656 C 414.359375 294.199219 406.230469 312.925781 401.769531 333.832031 C 398.832031 347.730469 395.457031 361.558594 391.976562 375.347656 C 389.21875 386.234375 384.464844 396.214844 376.011719 403.910156 C 366.253906 412.800781 362.808594 423.980469 361.429688 436.753906 C 358.816406 461.179688 351.597656 483.75 331.539062 500.121094 C 320.183594 509.375 315.867188 521.929688 315.140625 536.046875 C 314.8125 542.363281 314.8125 548.675781 314.777344 554.992188 C 314.667969 565.589844 312.3125 575.640625 307.957031 585.261719 C 305.492188 590.703125 302.734375 596.039062 300.304688 601.519531 C 297.871094 607 295.042969 612.332031 294.0625 618.359375 C 292.722656 626.597656 295.441406 629.71875 303.675781 629.101562 C 314.886719 628.230469 323.339844 622.640625 329.035156 613.058594 C 331.9375 608.195312 334.367188 603.042969 336.90625 597.960938 C 340.96875 589.90625 347.246094 584.207031 356.0625 582.285156 C 369.445312 579.417969 378.914062 572.195312 384.25 559.566406 C 389.617188 546.863281 413.050781 543.160156 422.375 557.605469 C 425.496094 562.433594 427.816406 567.585938 429.992188 572.8125 C 432.097656 577.820312 434.746094 582.464844 438.808594 586.128906 C 445.628906 592.335938 450.597656 592.15625 456.621094 585.367188 C 463.914062 577.09375 466.378906 567.804688 461.917969 557.316406 C 458.6875 549.765625 454.878906 542.472656 451.976562 534.777344 C 447.078125 521.675781 451.105469 512.820312 463.984375 507.269531 C 466.851562 506.035156 470.007812 505.089844 473.089844 504.835938 C 490.105469 503.3125 504.253906 495.292969 517.421875 485.238281 C 522.574219 481.285156 528.050781 478.597656 534.542969 477.800781 C 538.933594 477.292969 543.285156 476.601562 547.640625 475.839844 C 565.996094 472.539062 579.273438 462.339844 587.871094 445.898438 C 589.613281 442.5625 591.0625 439.039062 592.625 435.59375 C 596.324219 427.355469 601.65625 420.460938 609.058594 415.195312 C 614.207031 411.53125 619.757812 409.609375 626 411.3125 C 632.09375 412.984375 637.714844 412.292969 643.554688 410.117188 C 653.570312 406.339844 662.128906 408.992188 669.058594 417.046875 C 671.128906 419.441406 672.90625 422.054688 674.863281 424.523438 C 676.859375 426.992188 678.707031 429.605469 681.03125 431.710938 C 689.011719 439.003906 697.789062 437.445312 702.761719 427.828125 C 705.734375 422.054688 706.460938 415.8125 705.335938 409.390625 C 704.355469 403.765625 702.253906 398.464844 700.476562 393.058594 C 699.167969 389.175781 697.644531 385.257812 697.136719 381.265625 C 696.011719 372.625 698.40625 364.714844 705.335938 359.199219 C 712.082031 353.792969 719.558594 355.640625 726.847656 358.691406 C 737.042969 362.9375 742.808594 370.667969 745.242188 381.191406 C 747.527344 391.097656 750.71875 400.679688 756.523438 409.136719 C 763.632812 419.441406 773.644531 419.914062 781.625 410.296875 C 788.699219 401.769531 789.96875 392.007812 785.796875 381.84375 C 783.40625 376.039062 780.066406 370.59375 777.347656 364.894531 C 770.816406 351.285156 773.5 343.847656 786.921875 337.460938 C 790.914062 335.574219 795.011719 333.757812 798.605469 331.253906 C 807.09375 325.410156 807.527344 318.695312 800.054688 311.765625 C 797.296875 309.1875 794.214844 306.9375 791.09375 304.796875 C 781.808594 298.410156 776.003906 289.734375 773.355469 278.8125 C 772.085938 273.585938 770.816406 268.359375 769.257812 263.242188 C 766.316406 253.769531 760.550781 246.476562 751.699219 241.867188 C 747.527344 239.691406 743.28125 237.402344 738.820312 235.914062 C 728.261719 232.394531 720.972656 225.644531 716.546875 215.484375 C 715.023438 211.964844 713.644531 207.933594 709.074219 206.046875 C 708.417969 207.933594 707.984375 209.421875 707.441406 210.875 C 701.128906 227.058594 690.609375 234.5 673.339844 233.882812 C 656.542969 233.300781 640.074219 230.109375 624.113281 224.808594 C 611.378906 220.5625 604.738281 211.273438 603.976562 197.84375 C 603.542969 190.441406 605.066406 183.511719 608.257812 176.761719 C 610.835938 171.316406 615.007812 167.070312 618.632812 162.425781 Z M 895.355469 224.339844 C 892.164062 218.714844 889.949219 214.613281 887.554688 210.582031 C 874.0625 188.011719 858.570312 166.851562 841.046875 147.292969 C 777.492188 76.304688 700.113281 31.664062 603.722656 23.679688 C 580.363281 21.757812 557.109375 21.902344 534.109375 27.417969 C 528.777344 28.691406 524.058594 30.976562 519.597656 34.097656 C 510.457031 40.484375 504.433594 49.195312 500.550781 59.464844 C 494.203125 76.339844 493.222656 93.324219 500.804688 110.164062 C 503.671875 116.515625 507.480469 120.21875 515.644531 120.6875 C 561.75 123.339844 607.425781 129.507812 652.082031 141.664062 C 696.667969 153.789062 732.542969 178.757812 759.460938 216.316406 C 773.5 235.914062 784.601562 257.183594 794.398438 279.175781 C 795.449219 281.535156 795.375 284.875 798.824219 285.78125 C 808.289062 242.957031 860.785156 216.789062 895.355469 224.375 Z M 911.824219 303.707031 C 914.726562 286.070312 915.089844 267.308594 907.945312 249.054688 C 902.210938 234.425781 893.757812 228.839844 877.90625 230.109375 C 853.054688 232.105469 832.667969 243.136719 816.886719 262.335938 C 807.929688 273.222656 803.757812 285.960938 804.589844 300.152344 C 804.773438 302.945312 805.132812 305.558594 806.839844 308.136719 C 815.835938 321.78125 813.660156 330.746094 799.402344 339.203125 C 796.175781 341.125 792.65625 342.613281 789.28125 344.320312 C 780.539062 348.675781 779.304688 351.867188 783.296875 360.90625 C 785.074219 364.933594 787.648438 368.632812 789.316406 372.699219 C 791.132812 377.089844 793.417969 377.125 797.40625 375.421875 C 827.589844 362.539062 857.554688 349.183594 887.484375 335.679688 C 901.339844 329.4375 908.234375 318.949219 911.824219 303.707031 Z M 674.320312 435.449219 C 671.164062 431.019531 668.40625 426.808594 665.285156 422.855469 C 659.011719 414.871094 653.933594 413.128906 644.644531 416.867188 C 638.222656 419.480469 631.984375 420.421875 625.308594 418.753906 C 620.304688 417.484375 616.09375 419.042969 612.175781 422.238281 C 606.664062 426.738281 602.636719 432.253906 599.734375 438.675781 C 598.027344 442.414062 596.542969 446.226562 594.617188 449.855469 C 585.1875 467.785156 570.640625 478.78125 550.398438 481.753906 C 545.425781 482.480469 540.382812 482.773438 535.34375 483.242188 C 529.863281 483.75 525.183594 485.929688 520.722656 489.230469 C 505.777344 500.335938 490.648438 511.152344 471.023438 512.277344 C 469.207031 512.386719 467.324219 513.183594 465.652344 513.945312 C 457.164062 517.867188 454.515625 523.453125 457.671875 532.382812 C 459.847656 538.589844 463.078125 544.46875 465.726562 550.527344 C 466.960938 553.394531 468.628906 554.484375 471.566406 552.742188 C 473.199219 551.761719 474.90625 550.964844 476.535156 550.019531 C 530.445312 519.71875 584.386719 489.484375 638.222656 459.074219 C 648.636719 453.195312 658.648438 446.515625 668.804688 440.164062 C 670.65625 439.003906 672.757812 438.167969 674.28125 435.410156 Z M 649.433594 223.867188 C 653.605469 224.449219 660.789062 225.535156 667.972656 226.40625 C 670.765625 226.734375 673.628906 226.699219 676.460938 226.515625 C 694.5625 225.425781 706.496094 208.296875 699.460938 191.566406 C 687.304688 162.75 664.816406 151.101562 634.632812 161.300781 C 620.085938 166.199219 610.796875 180.390625 610.945312 195.632812 C 611.015625 206.082031 615.40625 213.703125 625.527344 217.695312 C 632.3125 220.382812 639.3125 222.125 649.46875 223.867188 Z M 309.699219 638.316406 C 313.871094 641.910156 313.980469 642.203125 317.460938 640.824219 C 322.433594 638.863281 327.328125 636.613281 332.082031 634.179688 C 359.363281 620.246094 386.0625 605.328125 412.507812 589.867188 C 427.5625 581.050781 427.492188 580.976562 418.640625 565.808594 C 418.3125 565.261719 417.984375 564.71875 417.621094 564.210938 C 409.933594 552.453125 396.253906 552.996094 389.835938 565.589844 C 383.632812 577.785156 374.453125 586.203125 361.101562 589.578125 C 352.46875 591.757812 346.628906 596.835938 343.183594 604.964844 C 341.949219 607.871094 340.460938 610.664062 339.046875 613.457031 C 333.496094 624.273438 325.480469 632.332031 313.617188 636.105469 C 312.164062 636.578125 310.605469 636.9375 309.699219 638.355469 Z M 655.308594 152.554688 C 655.382812 151.863281 655.492188 151.175781 655.5625 150.484375 C 653.167969 149.722656 650.8125 148.886719 648.417969 148.234375 C 620.339844 140.757812 591.863281 135.242188 563.058594 131.578125 C 545.570312 129.328125 527.976562 127.65625 510.417969 125.878906 C 503.925781 125.226562 503.925781 125.480469 503.5625 133.171875 C 523.226562 130.414062 541.871094 133.828125 559.539062 142.609375 C 571.546875 148.597656 584.0625 152.410156 597.628906 152.664062 C 604.558594 152.808594 611.777344 152.300781 618.34375 154.078125 C 631.1875 157.597656 642.976562 151.539062 655.347656 152.515625 Z M 712.917969 417.339844 C 719.847656 414.109375 725.507812 411.496094 731.164062 408.808594 C 735.15625 406.921875 740.417969 405.980469 742.703125 402.859375 C 745.203125 399.375 740.777344 394.875 740.089844 390.589844 C 739.546875 387.179688 738.53125 383.839844 737.585938 380.5 C 734.613281 369.796875 726.8125 364.75 716.472656 362.792969 C 712.265625 361.992188 709.253906 363.664062 706.824219 367.074219 C 702.289062 373.390625 702.652344 380.03125 705.117188 386.851562 C 708.527344 396.289062 712.265625 405.652344 712.882812 417.300781 Z M 697.136719 170.226562 C 702.652344 179.011719 707.804688 187.609375 708.820312 198.027344 C 709 199.804688 710.015625 200.964844 711.503906 201.621094 C 717.453125 204.269531 720.066406 209.820312 723.148438 214.902344 C 726.886719 221.144531 732.074219 225.425781 738.929688 227.714844 C 748.253906 230.796875 757.175781 234.683594 764.757812 241.140625 C 765.519531 241.792969 766.355469 241.832031 767.042969 240.5625 C 751.988281 209.132812 726.847656 187.503906 697.136719 170.226562 Z M 792.980469 295.144531 C 789.789062 283.710938 785.109375 272.933594 778.472656 263.027344 C 780.574219 274.894531 781.15625 287.414062 792.980469 295.144531 Z M 487.492188 284.726562 C 460.25 278.667969 445.59375 256.3125 451.832031 232.941406 C 452.921875 228.910156 454.445312 225.027344 456.949219 221.835938 C 471.601562 203.109375 490.214844 192.691406 514.699219 193.707031 C 526.492188 194.214844 537.046875 197.15625 546.296875 204.488281 C 560.265625 215.519531 564.945312 231.996094 558.8125 248.582031 C 552.863281 264.585938 541.90625 275.765625 525.730469 281.496094 C 512.667969 286.105469 499.246094 286.722656 487.492188 284.765625 Z M 490.976562 278.230469 C 499.355469 280.011719 511.835938 279.210938 523.84375 274.53125 C 539.660156 268.398438 549.671875 256.929688 553.300781 240.234375 C 555.222656 231.414062 553.226562 223.359375 547.566406 216.28125 C 537.519531 203.796875 513.574219 196.210938 498.410156 201.4375 C 487.636719 205.140625 477.699219 210.691406 469.390625 218.75 C 464.820312 223.175781 461.121094 228.222656 459.269531 234.464844 C 453.355469 254.207031 464.929688 272.242188 490.976562 278.230469 Z M 547.710938 427.644531 C 512.453125 420.859375 507.625 380.757812 525.148438 358.761719 C 529.539062 353.246094 534.796875 348.710938 541.074219 345.554688 C 547.53125 342.285156 554.242188 339.492188 560.917969 336.589844 C 565.054688 334.773438 569.585938 334.085938 573.941406 334.882812 C 589.503906 337.75 603.761719 343.484375 613.664062 356.585938 C 624.875 371.394531 624.582031 390.011719 612.140625 404.636719 C 595.273438 424.523438 573.46875 431.925781 547.75 427.679688 Z M 549.128906 420.203125 C 570.023438 424.886719 594.65625 415.523438 606.878906 398.210938 C 616.203125 385.039062 615.371094 369.976562 604.632812 358.4375 C 582.25 334.265625 540.820312 340.363281 526.417969 369.941406 C 515.570312 392.1875 525.875 415.015625 549.089844 420.203125 Z M 405.433594 509.484375 C 399.15625 508.320312 392.121094 505.707031 385.773438 501.351562 C 364.695312 487.019531 362.445312 457.765625 381.816406 441.253906 C 411.347656 416.105469 447.40625 425.359375 467.105469 450.21875 C 481.617188 468.507812 474.25 495.65625 452.8125 506.214844 C 440.222656 512.421875 423.972656 513.65625 405.433594 509.484375 Z M 424.335938 433.960938 C 420.925781 433.851562 416.859375 431.308594 412.253906 432.617188 C 401.769531 435.628906 392.121094 440.128906 384.503906 448.148438 C 371.078125 462.230469 372.820312 484.769531 389.253906 495.109375 C 407.9375 506.90625 428.542969 509.15625 449.003906 500.121094 C 469.0625 491.226562 472.945312 466.695312 457.308594 451.308594 C 448.386719 442.488281 437.792969 436.425781 424.296875 433.996094 Z M 475.558594 388.378906 C 475.449219 389.210938 475.195312 389.828125 475.265625 390.410156 C 476.027344 395.890625 479.113281 402.457031 473.199219 406.160156 C 465.945312 410.695312 457.492188 412.910156 448.75 410.371094 C 443.453125 408.808594 442.21875 403.945312 440.839844 399.375 C 439.511719 394.945312 436.460938 392.804688 431.699219 392.949219 C 419.910156 393.3125 410.910156 386.742188 407.972656 375.347656 C 406.085938 368.089844 406.484375 360.976562 409.535156 354.007812 C 419.402344 331.363281 449.65625 315.46875 473.816406 320.257812 C 491.847656 323.851562 504.90625 339.566406 505.125 357.964844 C 505.269531 370.121094 499.066406 378.25 488.617188 383.40625 C 484.445312 385.472656 479.839844 386.707031 475.519531 388.304688 Z M 414.722656 361.847656 C 411.492188 376.546875 419.507812 386.742188 434.5625 387.144531 C 440.996094 387.3125 445.300781 390.542969 447.480469 396.832031 C 449.945312 403.910156 451.398438 404.855469 458.398438 403.910156 C 469.535156 402.421875 470.261719 401.40625 468.410156 390.226562 C 467.214844 382.898438 467.214844 382.824219 475.011719 381.011719 C 479.945312 379.886719 484.773438 378.398438 488.945312 375.382812 C 493.695312 371.9375 497.179688 367.617188 498.050781 361.59375 C 499.683594 349.871094 491.917969 335.425781 481.144531 330.128906 C 458.253906 318.84375 420.125 337.0625 414.722656 361.882812 Z M 615.078125 304.46875 C 613.300781 301.964844 610.945312 299.355469 609.3125 296.339844 C 598.71875 276.816406 609.128906 257.144531 631.1875 254.933594 C 652.335938 252.792969 683.714844 265.675781 686.363281 298.84375 C 687.597656 314.050781 681.863281 326.0625 668.296875 333.578125 C 658.574219 338.949219 648.671875 338.910156 640.109375 331.472656 C 636.046875 327.953125 633.761719 328.675781 630.96875 332.160156 C 619.578125 346.386719 614.460938 340.074219 607.351562 329.839844 C 606.265625 328.277344 605.210938 326.71875 604.339844 325.011719 C 600.96875 318.371094 601.546875 315.867188 607.242188 311.148438 C 609.636719 309.152344 612.757812 308.0625 615.042969 304.472656 Z M 645.152344 261.9375 C 640.980469 261.03125 635.359375 260.230469 629.664062 261.210938 C 615.042969 263.640625 607.714844 276.488281 613.410156 290.207031 C 614.714844 293.367188 616.746094 296.269531 618.742188 299.097656 C 624.113281 306.613281 623.96875 307.664062 616.132812 313.21875 C 607.96875 318.988281 607.933594 319.058594 613.628906 327.007812 C 614.351562 328.023438 615.1875 329.003906 615.914062 330.019531 C 618.199219 333.285156 620.59375 333.941406 623.53125 330.746094 C 625.671875 328.421875 628.066406 326.355469 630.277344 324.105469 C 633.472656 320.910156 636.046875 320.546875 639.566406 324.359375 C 647.65625 333.140625 660.96875 334.375 672.214844 322.980469 C 678.09375 317.027344 680.632812 309.804688 680.269531 301.496094 C 679.472656 281.898438 666.957031 267.34375 645.117188 261.9375 Z M 355.191406 565.371094 C 348.007812 563.703125 344.597656 556.082031 348.878906 549.984375 C 355.261719 540.949219 362.589844 532.710938 372.09375 526.757812 C 378.878906 522.511719 381.238281 522.839844 384.828125 528.027344 C 390.414062 536.046875 390.304688 539.277344 383.921875 543.816406 C 375.941406 549.476562 367.886719 554.992188 361.863281 562.867188 C 360.160156 565.082031 357.875 565.769531 355.152344 565.371094 Z M 355.152344 559.058594 C 357.078125 559.128906 357.800781 557.605469 358.746094 556.40625 C 363.460938 550.417969 369.410156 545.773438 375.46875 541.273438 C 375.976562 540.910156 376.449219 540.511719 376.992188 540.183594 C 380.222656 538.226562 382.941406 535.867188 379.675781 532.019531 C 376.339844 528.101562 374.019531 532.273438 371.839844 533.761719 C 365.09375 538.480469 359.796875 544.757812 354.898438 551.328125 C 353.992188 552.5625 353.160156 553.976562 352.832031 555.464844 C 352.46875 557.097656 353.59375 558.332031 355.117188 559.058594 Z M 532.292969 147.546875 C 536.105469 148.960938 541.21875 150.558594 546.117188 152.699219 C 553.625 155.964844 555.730469 163.585938 551.375 170.699219 C 549.382812 173.964844 546.589844 174.546875 543.285156 173.023438 C 539.585938 171.316406 536.03125 169.285156 532.332031 167.652344 C 526.527344 165.074219 520.46875 163.730469 514.011719 164.53125 C 507.261719 165.363281 505.777344 164.421875 504.507812 159.121094 C 502.984375 152.808594 504.722656 149.105469 510.566406 147.398438 C 517.3125 145.441406 524.203125 145.621094 532.257812 147.546875 Z M 529.648438 152.335938 C 524.277344 151.175781 519.015625 151.320312 513.757812 152.371094 C 511.433594 152.84375 509.621094 153.679688 510.058594 156.691406 C 510.457031 159.304688 511.6875 160.792969 514.410156 160.246094 C 523.769531 158.359375 532.332031 161.046875 540.785156 164.675781 C 542.34375 165.363281 544.449219 166.527344 545.679688 164.238281 C 547.132812 161.554688 546.152344 159.265625 543.503906 158.070312 C 538.96875 156 534.289062 154.222656 529.683594 152.335938 Z M 563.746094 314.558594 C 563.421875 317.425781 561.605469 317.535156 560.300781 318.226562 C 550.214844 323.34375 540.167969 328.496094 530.082031 333.578125 C 526.089844 335.609375 522.863281 334.554688 520.214844 331.035156 C 516.984375 326.71875 516.367188 322.507812 518.945312 318.878906 C 521.339844 315.503906 524.75 313.144531 528.195312 310.929688 C 534.871094 306.648438 542.269531 303.925781 549.78125 301.640625 C 558.160156 299.136719 560.375 300.515625 562.585938 308.933594 C 563.128906 311.039062 563.492188 313.21875 563.746094 314.558594 Z M 559.175781 313.941406 C 557.253906 310.675781 558.050781 305.667969 552.5 307.265625 C 543.070312 309.949219 533.925781 313.324219 526.199219 319.675781 C 523.84375 321.636719 522.171875 323.742188 524.457031 326.863281 C 526.78125 330.019531 528.921875 327.734375 530.953125 326.609375 C 539.804688 321.78125 548.800781 317.246094 559.175781 313.90625 Z M 491.773438 435.300781 C 492.933594 429.929688 495.65625 426.085938 500.953125 425.320312 C 508.570312 424.234375 512.414062 425.722656 510.925781 433.851562 C 509.367188 442.308594 510.925781 450.800781 512.234375 459.253906 C 512.851562 463.101562 512.742188 466.730469 509.148438 469.488281 C 502.074219 475.003906 495.980469 473.410156 493.007812 464.917969 C 489.558594 455.082031 490.429688 445.027344 491.738281 435.300781 Z M 504.398438 431.746094 C 501.167969 431.273438 499.789062 432.871094 499.136719 435.121094 C 496.527344 444.011719 495.835938 453.050781 498.230469 462.085938 C 498.847656 464.371094 499.320312 467.382812 503.019531 466.296875 C 505.921875 465.460938 507.082031 463.355469 506.539062 460.523438 C 504.722656 451.015625 504.507812 441.363281 504.398438 431.746094 Z M 707.257812 322.398438 C 710.199219 308.460938 713.136719 306.140625 721.625 307.628906 C 725.324219 308.28125 727.5 310.023438 726.703125 313.941406 C 724.816406 323.304688 725.070312 332.667969 726.703125 341.996094 C 727.574219 347.113281 724.382812 348.492188 720.390625 349.472656 C 713.609375 351.105469 711.539062 350.671875 709.582031 345.660156 C 706.171875 336.914062 706.132812 327.878906 707.257812 322.433594 Z M 713.535156 320.910156 C 712.011719 327.769531 712.082031 334.011719 712.738281 340.289062 C 713.027344 343.011719 713.390625 345.261719 717.164062 344.464844 C 720.171875 343.847656 721.335938 342.503906 721.007812 339.347656 C 720.464844 333.757812 720.464844 328.097656 719.957031 322.507812 C 719.664062 319.386719 722.675781 314.34375 718.542969 313.507812 C 713.0625 312.382812 715.058594 318.769531 713.5 320.910156 Z M 409.824219 416.722656 C 410.1875 414.652344 409.316406 413.019531 407.210938 412.582031 C 404.089844 411.96875 401.660156 413.199219 400.933594 416.359375 C 400.390625 418.679688 401.625 420.496094 404.128906 421.292969 C 407.246094 421.367188 409.316406 419.878906 409.859375 416.722656 Z M 446.316406 288.503906 C 446.246094 290.933594 447.734375 292.675781 450.164062 292.964844 C 452.195312 293.21875 453.898438 292.167969 453.972656 289.953125 C 454.082031 287.484375 452.523438 286.035156 450.164062 285.453125 C 447.988281 285.382812 446.390625 286.359375 446.316406 288.503906 Z M 577.351562 256.890625 C 575.320312 256.238281 573.503906 256.820312 573.035156 259.070312 C 572.488281 261.644531 574.085938 263.351562 576.445312 263.75 C 578.003906 264.042969 579.417969 263.0625 580 260.703125 C 580.253906 259.105469 579.382812 257.546875 577.386719 256.890625 Z M 710.742188 288.648438 C 708.746094 288.25 706.894531 289.265625 706.316406 291.261719 C 705.699219 293.292969 706.640625 295.105469 708.636719 295.761719 C 711.140625 296.523438 712.738281 295.035156 713.714844 292.855469 C 713.824219 290.644531 712.808594 289.046875 710.777344 288.648438 Z M 759.207031 381.988281 C 758.664062 384.058594 759.714844 385.691406 761.785156 386.054688 C 763.34375 386.34375 764.832031 385.546875 765.265625 383.804688 C 765.773438 381.699219 764.722656 380.320312 762.90625 379.703125 C 760.949219 379.523438 759.605469 380.394531 759.207031 381.953125 Z M 355.554688 514.5625 C 356.316406 512.820312 355.335938 511.480469 353.703125 510.898438 C 352.070312 510.316406 350.472656 510.753906 349.820312 512.496094 C 349.167969 514.199219 350.039062 515.472656 351.671875 516.269531 C 353.375 516.703125 354.828125 516.160156 355.515625 514.5625 Z M 423.753906 528.210938 C 422.519531 528.027344 421.324219 528.679688 421.433594 530.132812 C 421.46875 530.859375 422.230469 531.910156 422.847656 532.09375 C 424.1875 532.457031 424.949219 531.476562 425.277344 529.878906 C 424.84375 529.371094 424.371094 528.28125 423.753906 528.210938 Z M 484.734375 173.894531 C 483.574219 172.914062 482.449219 173.386719 481.6875 174.4375 C 481.035156 175.308594 481.652344 176.144531 482.378906 176.6875 C 483.539062 177.632812 484.554688 177.050781 485.386719 176.359375 C 485.894531 175.234375 485.460938 174.4375 484.734375 173.855469 Z M 584.425781 208.042969 C 583.410156 208.042969 582.609375 208.550781 582.503906 209.640625 C 582.355469 211.128906 583.191406 211.964844 584.640625 211.964844 C 585.585938 211.964844 586.421875 211.527344 586.601562 210.402344 C 586.601562 208.949219 585.914062 208.078125 584.425781 208.042969 Z M 774.335938 316.121094 C 773.574219 315.976562 772.339844 316.230469 771.976562 316.773438 C 771.144531 318.007812 771.867188 319.097656 773.175781 319.496094 C 774.082031 319.785156 774.878906 319.242188 775.316406 318.296875 C 775.53125 317.316406 775.351562 316.300781 774.335938 316.121094 Z M 634.34375 189.824219 C 630.132812 188.953125 625.453125 192.074219 624.292969 196.539062 C 623.132812 201.003906 625.890625 205.9375 630.132812 206.953125 C 634.8125 208.078125 639.601562 204.851562 640.65625 199.839844 C 641.671875 195.125 638.914062 190.730469 634.34375 189.824219 Z M 655.78125 185.761719 C 653.316406 185.179688 651.609375 186.304688 651.03125 188.773438 C 650.8125 189.679688 651.320312 190.515625 652.445312 190.695312 C 654.695312 191.058594 656.652344 190.804688 657.777344 188.628906 C 657.777344 187.140625 656.980469 186.050781 655.78125 185.761719 Z M 650.882812 209.351562 C 649.722656 208.878906 648.417969 209.203125 647.800781 210.582031 C 647.113281 212.179688 647.328125 213.703125 648.960938 214.539062 C 650.667969 215.410156 651.863281 214.539062 652.226562 213.886719 C 653.496094 211.09375 652.371094 209.96875 650.882812 209.351562 Z M 622.261719 180.859375 C 622.042969 182.53125 623.023438 183.835938 624.910156 183.980469 C 625.925781 184.054688 626.722656 183.621094 626.976562 182.566406 C 627.414062 180.789062 626.6875 179.628906 625.054688 178.972656 C 623.605469 178.863281 622.40625 179.664062 622.261719 180.859375 Z M 484.988281 233.992188 C 485.714844 230 483.464844 226.152344 479.875 225.246094 C 475.050781 224.011719 468.230469 228.585938 467.070312 233.8125 C 466.054688 238.417969 468.300781 242.15625 472.617188 242.957031 C 477.804688 243.9375 484.011719 239.472656 484.988281 233.992188 Z M 514.589844 217.734375 C 513.539062 221.074219 515.824219 225.136719 519.125 225.863281 C 522.609375 226.625 525.984375 224.085938 527.433594 219.839844 C 528.59375 216.355469 527.976562 213.667969 524.640625 212.144531 C 520.976562 211.054688 515.714844 214.066406 514.589844 217.734375 Z M 502.074219 215.375 C 502.546875 213.742188 501.675781 212.363281 499.828125 211.964844 C 497.976562 211.5625 496.597656 212.578125 496.234375 214.140625 C 495.871094 215.699219 496.632812 217.1875 498.484375 217.625 C 500.335938 217.953125 501.640625 216.863281 502.074219 215.375 Z M 527.214844 234.28125 C 526.34375 233.738281 525.367188 233.917969 524.75 234.753906 C 523.734375 236.132812 524.53125 237.1875 525.765625 237.585938 C 526.453125 237.804688 527.398438 237.148438 527.941406 237.003906 C 528.628906 235.625 528.050781 234.828125 527.253906 234.320312 Z M 542.199219 381.554688 C 538.96875 380.464844 534.617188 382.605469 532.765625 386.164062 C 531.0625 389.394531 532.585938 397.230469 535.449219 399.226562 C 538.605469 401.40625 541.582031 400.609375 543.792969 397.847656 C 545.136719 396.179688 545.679688 393.929688 546.1875 392.804688 C 547.566406 386.890625 545.863281 382.789062 542.199219 381.554688 Z M 562.550781 373.132812 C 563.601562 370.628906 562.296875 369.542969 560.226562 369.105469 C 557.253906 368.453125 554.316406 368.597656 553.445312 372.226562 C 552.828125 374.769531 553.152344 377.308594 556.128906 378.542969 C 560.410156 379.269531 561.316406 376.109375 562.550781 373.132812 Z M 544.847656 362.066406 C 542.777344 361.773438 541.074219 362.390625 540.890625 364.75 C 540.746094 366.492188 541.761719 367.726562 543.539062 367.945312 C 545.679688 368.199219 546.988281 366.964844 547.964844 364.351562 C 547.386719 363.410156 546.550781 362.285156 544.847656 362.066406 Z M 574.847656 352.992188 C 575.027344 351.648438 574.414062 350.453125 573.144531 349.980469 C 571.363281 349.289062 569.988281 350.308594 569.480469 351.867188 C 568.898438 353.574219 569.839844 354.808594 571.4375 355.351562 C 573.398438 355.640625 574.558594 354.808594 574.847656 352.992188 Z M 447.660156 465.96875 C 444.46875 465.535156 442.144531 466.695312 441.53125 470.035156 C 440.804688 474.027344 444.25 479.6875 447.625 480.449219 C 450.742188 481.140625 453.792969 478.960938 454.300781 475.660156 C 454.988281 471.339844 451.722656 466.511719 447.625 465.96875 Z M 426.328125 464.261719 C 427.089844 461.757812 425.929688 459.871094 423.390625 459.4375 C 421.324219 459.074219 418.457031 458.820312 417.730469 461.179688 C 416.898438 464.007812 419.21875 465.570312 422.300781 466.621094 C 423.71875 466.585938 425.675781 466.40625 426.328125 464.261719 Z M 438.84375 451.015625 C 437.066406 450.90625 436.089844 451.925781 435.941406 453.664062 C 435.871094 454.972656 436.449219 455.988281 437.828125 456.316406 C 439.644531 456.75 440.585938 455.660156 441.3125 454.136719 C 441.058594 452.648438 440.769531 451.125 438.84375 450.980469 Z M 438.84375 451.015625 " fill-opacity="1" fill-rule="nonzero"/></svg>